<svg width="347" height="476" viewBox="0 0 347 476" fill="none" xmlns="http://www.w3.org/2000/svg">
<g filter="url(#filter0_d)">
<path d="M243.858 35.24C240.882 35.24 238.37 34.504 236.322 33.032C236.13 32.904 235.986 32.776 235.89 32.648C235.826 32.488 235.794 32.248 235.794 31.928C235.794 31.352 235.89 30.76 236.082 30.152C236.306 29.512 236.578 29.192 236.898 29.192C237.026 29.192 237.122 29.224 237.186 29.288C237.25 29.352 237.298 29.384 237.33 29.384C239.09 30.76 241.314 31.448 244.002 31.448C245.634 31.448 246.962 30.968 247.986 30.008C249.042 29.016 249.57 27.688 249.57 26.024C249.57 24.52 249.154 23.352 248.322 22.52C247.49 21.656 246.258 20.808 244.626 19.976C242.802 19.08 241.346 18.264 240.258 17.528C239.202 16.792 238.306 15.848 237.57 14.696C236.866 13.512 236.514 12.04 236.514 10.28C236.514 7.368 237.426 5.08 239.25 3.416C241.106 1.72 243.506 0.871999 246.45 0.871999C248.722 0.871999 250.674 1.352 252.306 2.312C252.53 2.44 252.642 2.632 252.642 2.888C252.642 3.304 252.482 3.896 252.162 4.664C251.874 5.432 251.586 5.816 251.298 5.816C251.202 5.816 250.994 5.736 250.674 5.576C249.458 4.968 247.97 4.664 246.21 4.664C244.674 4.664 243.378 5.112 242.322 6.008C241.266 6.872 240.738 8.136 240.738 9.8C240.738 11.24 241.17 12.408 242.034 13.304C242.93 14.168 244.37 15.112 246.354 16.136C247.986 16.968 249.298 17.752 250.29 18.488C251.314 19.192 252.162 20.136 252.834 21.32C253.506 22.472 253.842 23.928 253.842 25.688C253.842 28.696 252.914 31.048 251.058 32.744C249.202 34.408 246.802 35.24 243.858 35.24ZM244.719 83.288C240.815 83.288 237.839 81.864 235.791 79.016C233.743 76.168 232.719 71.864 232.719 66.104C232.719 54.776 236.719 49.112 244.719 49.112C252.751 49.112 256.767 54.776 256.767 66.104C256.767 71.864 255.743 76.168 253.695 79.016C251.647 81.864 248.655 83.288 244.719 83.288ZM244.767 79.64C249.823 79.64 252.351 75.128 252.351 66.104C252.351 57.208 249.823 52.76 244.767 52.76C242.239 52.76 240.335 53.848 239.055 56.024C237.807 58.168 237.183 61.528 237.183 66.104C237.183 75.128 239.711 79.64 244.767 79.64ZM158.272 131.096C157.056 131.096 156.448 130.744 156.448 130.04V98.36C156.448 97.656 157.056 97.304 158.272 97.304H158.992C160.176 97.304 160.768 97.656 160.768 98.36V130.04C160.768 130.744 160.176 131.096 158.992 131.096H158.272ZM169.923 131C169.475 131 169.139 130.888 168.915 130.664C168.723 130.44 168.627 130.072 168.627 129.56V98.84C168.627 98.328 168.723 97.96 168.915 97.736C169.139 97.512 169.475 97.4 169.923 97.4H177.987C186.019 97.4 190.035 103 190.035 114.2C190.035 125.4 186.019 131 177.987 131H169.923ZM177.891 127.352C180.291 127.352 182.179 126.312 183.555 124.232C184.931 122.12 185.619 118.776 185.619 114.2C185.619 109.656 184.931 106.328 183.555 104.216C182.179 102.104 180.291 101.048 177.891 101.048H172.995V127.352H177.891ZM197.486 131C197.038 131 196.702 130.888 196.478 130.664C196.286 130.44 196.19 130.072 196.19 129.56V98.84C196.19 98.328 196.286 97.96 196.478 97.736C196.702 97.512 197.038 97.4 197.486 97.4H211.31C211.918 97.4 212.222 97.88 212.222 98.84V99.608C212.222 100.568 211.918 101.048 211.31 101.048H200.51V111.992H210.206C210.814 111.992 211.118 112.472 211.118 113.432V114.2C211.118 115.16 210.814 115.64 210.206 115.64H200.51V127.352H211.31C211.63 127.352 211.854 127.464 211.982 127.688C212.142 127.912 212.222 128.28 212.222 128.792V129.56C212.222 130.072 212.142 130.44 211.982 130.664C211.854 130.888 211.63 131 211.31 131H197.486ZM216.736 131.096C215.552 131.096 214.96 130.824 214.96 130.28C214.96 130.184 214.992 129.976 215.056 129.656L223.744 98.216C223.936 97.608 224.576 97.304 225.664 97.304H227.2C228.352 97.304 228.992 97.608 229.12 98.216L237.808 129.656C237.904 129.88 237.952 130.088 237.952 130.28C237.952 130.536 237.792 130.744 237.472 130.904C237.184 131.032 236.752 131.096 236.176 131.096H235.36C234.336 131.096 233.76 130.84 233.632 130.328L231.568 122.456H221.248L219.232 130.328C219.104 130.84 218.528 131.096 217.504 131.096H216.736ZM230.512 118.808L227.104 105.656C227.008 105.24 226.832 104.264 226.576 102.728H226.336C226.272 102.952 226.208 103.32 226.144 103.832L225.76 105.656L222.352 118.808H230.512ZM243.61 131C243.162 131 242.826 130.888 242.602 130.664C242.41 130.44 242.314 130.072 242.314 129.56V98.36C242.314 97.656 242.922 97.304 244.138 97.304H244.81C246.026 97.304 246.634 97.656 246.634 98.36V127.352H256.618C256.97 127.352 257.21 127.464 257.338 127.688C257.498 127.912 257.578 128.28 257.578 128.792V129.56C257.578 130.072 257.498 130.44 257.338 130.664C257.21 130.888 256.97 131 256.618 131H243.61ZM263.647 131.096C262.431 131.096 261.823 130.744 261.823 130.04V98.36C261.823 97.656 262.431 97.304 263.647 97.304H264.367C265.551 97.304 266.143 97.656 266.143 98.36V130.04C266.143 130.744 265.551 131.096 264.367 131.096H263.647ZM273.042 131C272.786 131 272.53 130.712 272.274 130.136C272.018 129.528 271.89 128.968 271.89 128.456C271.89 128.264 271.922 128.072 271.986 127.88L287.394 101.048H274.002C273.682 101.048 273.458 100.92 273.33 100.664C273.202 100.408 273.138 99.992 273.138 99.416V99.032C273.138 98.456 273.202 98.04 273.33 97.784C273.458 97.528 273.682 97.4 274.002 97.4H291.57C291.794 97.4 292.018 97.704 292.242 98.312C292.498 98.888 292.626 99.432 292.626 99.944C292.626 100.232 292.61 100.424 292.578 100.52L277.266 127.352H291.714C292.322 127.352 292.626 127.896 292.626 128.984V129.368C292.626 130.456 292.322 131 291.714 131H273.042ZM299.674 131C299.226 131 298.89 130.888 298.666 130.664C298.474 130.44 298.378 130.072 298.378 129.56V98.84C298.378 98.328 298.474 97.96 298.666 97.736C298.89 97.512 299.226 97.4 299.674 97.4H313.498C314.106 97.4 314.41 97.88 314.41 98.84V99.608C314.41 100.568 314.106 101.048 313.498 101.048H302.698V111.992H312.394C313.002 111.992 313.306 112.472 313.306 113.432V114.2C313.306 115.16 313.002 115.64 312.394 115.64H302.698V127.352H313.498C313.818 127.352 314.042 127.464 314.17 127.688C314.33 127.912 314.41 128.28 314.41 128.792V129.56C314.41 130.072 314.33 130.44 314.17 130.664C314.042 130.888 313.818 131 313.498 131H299.674ZM245.718 179.096C244.502 179.096 243.894 178.744 243.894 178.04V146.36C243.894 145.656 244.502 145.304 245.718 145.304H246.438C247.622 145.304 248.214 145.656 248.214 146.36V178.04C248.214 178.744 247.622 179.096 246.438 179.096H245.718ZM238.712 227C238.264 227 237.928 226.888 237.704 226.664C237.512 226.44 237.416 226.072 237.416 225.56V194.84C237.416 194.328 237.512 193.96 237.704 193.736C237.928 193.512 238.264 193.4 238.712 193.4H246.776C254.808 193.4 258.824 199 258.824 210.2C258.824 221.4 254.808 227 246.776 227H238.712ZM246.68 223.352C249.08 223.352 250.968 222.312 252.344 220.232C253.72 218.12 254.408 214.776 254.408 210.2C254.408 205.656 253.72 202.328 252.344 200.216C250.968 198.104 249.08 197.048 246.68 197.048H241.784V223.352H246.68ZM236.658 275.096C235.474 275.096 234.882 274.824 234.882 274.28C234.882 274.184 234.914 273.976 234.978 273.656L243.666 242.216C243.858 241.608 244.498 241.304 245.586 241.304H247.122C248.274 241.304 248.914 241.608 249.042 242.216L257.73 273.656C257.826 273.88 257.874 274.088 257.874 274.28C257.874 274.536 257.714 274.744 257.394 274.904C257.106 275.032 256.674 275.096 256.098 275.096H255.282C254.258 275.096 253.682 274.84 253.554 274.328L251.49 266.456H241.17L239.154 274.328C239.026 274.84 238.45 275.096 237.426 275.096H236.658ZM250.434 262.808L247.026 249.656C246.93 249.24 246.754 248.264 246.498 246.728H246.258C246.194 246.952 246.13 247.32 246.066 247.832L245.682 249.656L242.274 262.808H250.434ZM263.82 275.096C262.604 275.096 261.996 274.744 261.996 274.04V242.84C261.996 242.328 262.092 241.96 262.284 241.736C262.508 241.512 262.844 241.4 263.292 241.4H271.212C273.484 241.4 275.5 242.072 277.26 243.416C279.052 244.76 279.948 247.224 279.948 250.808C279.948 253.464 279.436 255.528 278.412 257C277.42 258.472 276.284 259.464 275.004 259.976C273.756 260.456 272.62 260.696 271.596 260.696H266.316V274.04C266.316 274.744 265.708 275.096 264.492 275.096H263.82ZM271.356 257.048C272.412 257.048 273.372 256.584 274.236 255.656C275.1 254.728 275.532 253.112 275.532 250.808C275.532 248.664 275.084 247.176 274.188 246.344C273.324 245.48 272.268 245.048 271.02 245.048H266.316V257.048H271.356ZM296 275.288C292.096 275.288 289.12 273.864 287.072 271.016C285.024 268.168 284 263.864 284 258.104C284 246.776 288 241.112 296 241.112C304.032 241.112 308.048 246.776 308.048 258.104C308.048 263.864 307.024 268.168 304.976 271.016C302.928 273.864 299.936 275.288 296 275.288ZM296.048 271.64C301.104 271.64 303.632 267.128 303.632 258.104C303.632 249.208 301.104 244.76 296.048 244.76C293.52 244.76 291.616 245.848 290.336 248.024C289.088 250.168 288.464 253.528 288.464 258.104C288.464 267.128 290.992 271.64 296.048 271.64ZM316.335 275.096C315.119 275.096 314.511 274.744 314.511 274.04V242.36C314.511 241.656 315.119 241.304 316.335 241.304H317.055C318.239 241.304 318.831 241.656 318.831 242.36V274.04C318.831 274.744 318.239 275.096 317.055 275.096H316.335ZM328.033 275C327.585 275 327.249 274.888 327.025 274.664C326.833 274.44 326.737 274.072 326.737 273.56V242.84C326.737 242.328 326.833 241.96 327.025 241.736C327.249 241.512 327.585 241.4 328.033 241.4H341.857C342.465 241.4 342.769 241.88 342.769 242.84V243.608C342.769 244.568 342.465 245.048 341.857 245.048H331.057V255.992H340.753C341.361 255.992 341.665 256.472 341.665 257.432V258.2C341.665 259.16 341.361 259.64 340.753 259.64H331.057V271.352H341.857C342.177 271.352 342.401 271.464 342.529 271.688C342.689 271.912 342.769 272.28 342.769 272.792V273.56C342.769 274.072 342.689 274.44 342.529 274.664C342.401 274.888 342.177 275 341.857 275H328.033ZM238.254 323.096C237.038 323.096 236.43 322.744 236.43 322.04V290.84C236.43 290.328 236.526 289.96 236.718 289.736C236.942 289.512 237.278 289.4 237.726 289.4H244.83C247.998 289.4 250.35 290.072 251.886 291.416C253.422 292.76 254.19 294.92 254.19 297.896C254.19 299.88 253.79 301.56 252.99 302.936C252.222 304.28 251.15 305.304 249.774 306.008V306.2C250.414 306.52 250.974 307.144 251.454 308.072C251.934 309 252.478 310.376 253.086 312.2L256.11 321.656C256.206 321.944 256.254 322.168 256.254 322.328C256.254 322.84 255.63 323.096 254.382 323.096H253.566C253.118 323.096 252.718 323.032 252.366 322.904C252.046 322.744 251.854 322.552 251.79 322.328L248.91 312.92C248.334 311.096 247.678 309.864 246.942 309.224C246.238 308.552 245.182 308.216 243.774 308.216H240.75V322.04C240.75 322.744 240.142 323.096 238.926 323.096H238.254ZM245.55 304.568C246.702 304.568 247.678 303.992 248.478 302.84C249.31 301.656 249.726 300.264 249.726 298.664C249.726 296.776 249.326 295.368 248.526 294.44C247.758 293.512 246.67 293.048 245.262 293.048H240.702V304.568H245.55ZM245.155 371.096C243.939 371.096 243.331 370.744 243.331 370.04V338.36C243.331 337.656 243.939 337.304 245.155 337.304H245.875C247.059 337.304 247.651 337.656 247.651 338.36V370.04C247.651 370.744 247.059 371.096 245.875 371.096H245.155ZM235.354 419C235.098 419 234.842 418.712 234.586 418.136C234.33 417.528 234.202 416.968 234.202 416.456C234.202 416.264 234.234 416.072 234.298 415.88L249.706 389.048H236.314C235.994 389.048 235.77 388.92 235.642 388.664C235.514 388.408 235.45 387.992 235.45 387.416V387.032C235.45 386.456 235.514 386.04 235.642 385.784C235.77 385.528 235.994 385.4 236.314 385.4H253.882C254.106 385.4 254.33 385.704 254.554 386.312C254.81 386.888 254.938 387.432 254.938 387.944C254.938 388.232 254.922 388.424 254.89 388.52L239.578 415.352H254.026C254.634 415.352 254.938 415.896 254.938 416.984V417.368C254.938 418.456 254.634 419 254.026 419H235.354ZM74.7968 467.096C73.5808 467.096 72.9728 466.744 72.9728 466.04V434.84C72.9728 434.328 73.0688 433.96 73.2608 433.736C73.4848 433.512 73.8208 433.4 74.2688 433.4H82.1888C84.4608 433.4 86.4768 434.072 88.2368 435.416C90.0288 436.76 90.9248 439.224 90.9248 442.808C90.9248 445.464 90.4128 447.528 89.3888 449C88.3968 450.472 87.2608 451.464 85.9808 451.976C84.7328 452.456 83.5968 452.696 82.5728 452.696H77.2928V466.04C77.2928 466.744 76.6848 467.096 75.4688 467.096H74.7968ZM82.3328 449.048C83.3888 449.048 84.3488 448.584 85.2128 447.656C86.0768 446.728 86.5088 445.112 86.5088 442.808C86.5088 440.664 86.0608 439.176 85.1648 438.344C84.3008 437.48 83.2448 437.048 81.9968 437.048H77.2928V449.048H82.3328ZM93.1031 467.096C91.9191 467.096 91.3271 466.824 91.3271 466.28C91.3271 466.184 91.3591 465.976 91.4231 465.656L100.111 434.216C100.303 433.608 100.943 433.304 102.031 433.304H103.567C104.719 433.304 105.359 433.608 105.487 434.216L114.175 465.656C114.271 465.88 114.319 466.088 114.319 466.28C114.319 466.536 114.159 466.744 113.839 466.904C113.551 467.032 113.119 467.096 112.543 467.096H111.727C110.703 467.096 110.127 466.84 109.999 466.328L107.935 458.456H97.6151L95.5991 466.328C95.4711 466.84 94.8951 467.096 93.8711 467.096H93.1031ZM106.879 454.808L103.471 441.656C103.375 441.24 103.199 440.264 102.943 438.728H102.703C102.639 438.952 102.575 439.32 102.511 439.832L102.127 441.656L98.7191 454.808H106.879ZM120.458 467.096C119.242 467.096 118.634 466.744 118.634 466.04V434.84C118.634 434.328 118.73 433.96 118.922 433.736C119.146 433.512 119.482 433.4 119.93 433.4H127.034C130.202 433.4 132.554 434.072 134.09 435.416C135.626 436.76 136.394 438.92 136.394 441.896C136.394 443.88 135.994 445.56 135.194 446.936C134.426 448.28 133.354 449.304 131.978 450.008V450.2C132.618 450.52 133.178 451.144 133.658 452.072C134.138 453 134.682 454.376 135.29 456.2L138.314 465.656C138.41 465.944 138.458 466.168 138.458 466.328C138.458 466.84 137.834 467.096 136.586 467.096H135.77C135.322 467.096 134.922 467.032 134.57 466.904C134.25 466.744 134.058 466.552 133.994 466.328L131.114 456.92C130.538 455.096 129.882 453.864 129.146 453.224C128.442 452.552 127.386 452.216 125.978 452.216H122.954V466.04C122.954 466.744 122.346 467.096 121.13 467.096H120.458ZM127.754 448.568C128.906 448.568 129.882 447.992 130.682 446.84C131.514 445.656 131.93 444.264 131.93 442.664C131.93 440.776 131.53 439.368 130.73 438.44C129.962 437.512 128.874 437.048 127.466 437.048H122.906V448.568H127.754ZM150.155 467.096C148.939 467.096 148.331 466.744 148.331 466.04V437.048H141.419C140.811 437.048 140.507 436.568 140.507 435.608V434.84C140.507 433.88 140.811 433.4 141.419 433.4H159.467C159.819 433.4 160.059 433.512 160.187 433.736C160.347 433.96 160.427 434.328 160.427 434.84V435.608C160.427 436.12 160.347 436.488 160.187 436.712C160.059 436.936 159.819 437.048 159.467 437.048H152.651V466.04C152.651 466.744 152.043 467.096 150.827 467.096H150.155ZM167.296 467.096C166.08 467.096 165.472 466.744 165.472 466.04V434.36C165.472 433.656 166.08 433.304 167.296 433.304H168.016C169.2 433.304 169.792 433.656 169.792 434.36V466.04C169.792 466.744 169.2 467.096 168.016 467.096H167.296ZM188.738 467.288C184.482 467.288 181.33 465.912 179.282 463.16C177.266 460.376 176.258 456.056 176.258 450.2C176.258 444.408 177.282 440.12 179.33 437.336C181.41 434.52 184.562 433.112 188.786 433.112C189.682 433.112 190.562 433.192 191.426 433.352C192.29 433.512 193.026 433.736 193.634 434.024C193.954 434.152 194.162 434.312 194.258 434.504C194.386 434.696 194.45 434.968 194.45 435.32C194.45 435.864 194.322 436.488 194.066 437.192C193.81 437.896 193.442 438.12 192.962 437.864C191.618 437.192 190.226 436.856 188.786 436.856C186.034 436.856 184.002 437.928 182.69 440.072C181.378 442.216 180.722 445.576 180.722 450.152C180.722 454.728 181.362 458.104 182.642 460.28C183.954 462.456 185.986 463.544 188.738 463.544C190.402 463.544 191.906 463.144 193.25 462.344C193.442 462.28 193.586 462.248 193.682 462.248C194.098 462.248 194.418 462.536 194.642 463.112C194.898 463.656 195.026 464.184 195.026 464.696C195.026 465.016 194.946 465.304 194.786 465.56C194.626 465.816 194.322 466.056 193.874 466.28C193.33 466.536 192.594 466.776 191.666 467C190.738 467.192 189.762 467.288 188.738 467.288ZM201.89 467.096C200.674 467.096 200.066 466.744 200.066 466.04V434.36C200.066 433.656 200.674 433.304 201.89 433.304H202.61C203.794 433.304 204.386 433.656 204.386 434.36V466.04C204.386 466.744 203.794 467.096 202.61 467.096H201.89ZM213.828 467.096C212.612 467.096 212.004 466.744 212.004 466.04V434.84C212.004 434.328 212.1 433.96 212.292 433.736C212.516 433.512 212.852 433.4 213.3 433.4H221.22C223.492 433.4 225.508 434.072 227.268 435.416C229.06 436.76 229.956 439.224 229.956 442.808C229.956 445.464 229.444 447.528 228.42 449C227.428 450.472 226.292 451.464 225.012 451.976C223.764 452.456 222.628 452.696 221.604 452.696H216.324V466.04C216.324 466.744 215.716 467.096 214.5 467.096H213.828ZM221.364 449.048C222.42 449.048 223.38 448.584 224.244 447.656C225.108 446.728 225.54 445.112 225.54 442.808C225.54 440.664 225.092 439.176 224.196 438.344C223.332 437.48 222.276 437.048 221.028 437.048H216.324V449.048H221.364ZM236.744 467C236.296 467 235.96 466.888 235.736 466.664C235.544 466.44 235.448 466.072 235.448 465.56V434.84C235.448 434.328 235.544 433.96 235.736 433.736C235.96 433.512 236.296 433.4 236.744 433.4H250.568C251.176 433.4 251.48 433.88 251.48 434.84V435.608C251.48 436.568 251.176 437.048 250.568 437.048H239.768V447.992H249.464C250.072 447.992 250.376 448.472 250.376 449.432V450.2C250.376 451.16 250.072 451.64 249.464 451.64H239.768V463.352H250.568C250.888 463.352 251.112 463.464 251.24 463.688C251.4 463.912 251.48 464.28 251.48 464.792V465.56C251.48 466.072 251.4 466.44 251.24 466.664C251.112 466.888 250.888 467 250.568 467H236.744Z" fill="white"/>
</g>
<defs>
<filter id="filter0_d" x="0.245193" y="0.872009" width="346.524" height="474.416" filterUnits="userSpaceOnUse" color-interpolation-filters="sRGB">
<feFlood flood-opacity="0" result="BackgroundImageFix"/>
<feColorMatrix in="SourceAlpha" type="matrix" values="0 0 0 0 0 0 0 0 0 0 0 0 0 0 0 0 0 0 127 0"/>
<feOffset dy="4"/>
<feGaussianBlur stdDeviation="2"/>
<feColorMatrix type="matrix" values="0 0 0 0 0 0 0 0 0 0 0 0 0 0 0 0 0 0 0.25 0"/>
<feBlend mode="normal" in2="BackgroundImageFix" result="effect1_dropShadow"/>
<feBlend mode="normal" in="SourceGraphic" in2="effect1_dropShadow" result="shape"/>
</filter>
</defs>
</svg>
